<?xml version="1.0" standalone="no"?>
<!DOCTYPE svg PUBLIC "-//W3C//DTD SVG 20010904//EN"
 "http://www.w3.org/TR/2001/REC-SVG-20010904/DTD/svg10.dtd">
<svg version="1.0" xmlns="http://www.w3.org/2000/svg"
 width="512.000000pt" height="512.000000pt" viewBox="0 0 512.000000 512.000000"
 preserveAspectRatio="xMidYMid meet">
<metadata>
Created by potrace 1.11, written by Peter Selinger 2001-2013
</metadata>
<g transform="translate(0.000000,512.000000) scale(0.100000,-0.100000)"
fill="#000000" stroke="none">
<path d="M1695 5105 c-93 -17 -174 -39 -325 -87 -151 -48 -235 -56 -340 -34
-74 16 -209 73 -242 103 -25 22 -23 2 3 -50 55 -109 140 -174 264 -203 57 -13
102 -14 245 -9 125 5 193 4 235 -5 33 -7 63 -14 67 -16 4 -3 1 -22 -7 -43 -7
-21 -16 -65 -20 -97 -12 -113 -14 -116 -43 -109 -146 37 -338 44 -549 20 -227
-25 -244 -39 -322 -270 -22 -65 -46 -122 -53 -126 -28 -18 -198 -8 -263 16
-42 15 30 -36 94 -67 74 -36 186 -48 258 -29 35 10 47 19 64 54 47 92 100 137
158 137 18 0 80 -16 139 -34 211 -69 281 -81 457 -80 118 1 173 5 209 17 27 9
53 14 58 11 18 -11 6 -32 -24 -45 -86 -34 -266 -123 -295 -145 -18 -14 -33
-33 -33 -43 0 -90 407 -473 741 -696 l107 -71 -30 -65 c-54 -114 -69 -152
-104 -259 -64 -194 -86 -301 -126 -625 -20 -159 -23 -222 -22 -545 1 -364 1
-365 28 -462 26 -97 69 -206 120 -306 15 -30 25 -56 22 -59 -2 -3 -49 9 -104
27 -296 94 -525 319 -627 615 -38 109 -38 114 4 164 130 156 259 406 313 609
29 112 37 377 14 493 -47 230 -190 519 -393 789 -39 52 -80 103 -92 114 -20
18 -20 18 -11 -15 16 -55 11 -207 -9 -289 -21 -87 -47 -141 -106 -226 -56 -79
-99 -116 -242 -212 -239 -161 -465 -350 -757 -633 l-159 -154 6 -121 c19 -363
124 -738 271 -957 99 -149 217 -248 401 -337 275 -133 604 -201 975 -203 234
0 334 12 588 73 68 17 128 30 133 30 5 0 26 -15 46 -34 21 -18 72 -58 114 -88
l75 -54 -48 -42 c-108 -97 -243 -314 -236 -381 l3 -32 423 1 c232 0 427 0 432
0 16 0 11 41 -9 87 -29 62 -65 77 -165 69 -86 -7 -203 -30 -386 -75 -204 -51
-207 -57 40 76 265 144 403 221 419 235 12 10 21 36 25 72 l7 56 98 0 c54 0
131 3 172 6 l74 7 47 -61 48 -60 -76 -98 c-160 -208 -214 -283 -214 -298 0
-14 59 -16 523 -18 287 -2 532 -2 544 0 32 5 37 35 15 84 -27 60 -62 89 -115
95 -86 10 -394 -31 -714 -95 -51 -10 -91 -17 -90 -15 2 2 48 25 103 51 575
282 796 516 834 882 15 156 -16 296 -95 425 -13 22 -32 56 -41 75 -98 208
-117 240 -169 297 -31 34 -78 77 -105 94 -28 18 -50 33 -50 34 0 2 21 -2 48
-7 26 -6 119 -11 207 -11 127 -1 176 3 238 18 42 10 77 24 77 30 0 34 -85 147
-175 233 -55 52 -99 99 -97 104 8 27 -20 170 -42 214 -20 40 -37 56 -88 86
-99 57 -101 59 -93 98 6 32 18 41 114 98 58 34 149 94 201 132 l94 70 112 0
c319 0 614 122 614 253 0 31 -8 34 -120 42 -47 3 -131 11 -186 17 l-101 11 46
61 c55 73 109 178 117 226 5 31 1 40 -38 79 -43 44 -251 212 -408 332 l-86 65
62 78 c103 130 143 229 144 353 0 55 -3 67 -29 95 -24 27 -36 33 -69 32 -70
-2 -236 -93 -410 -224 -36 -28 -69 -50 -74 -50 -5 0 -58 34 -118 75 -155 108
-156 108 -308 95 -133 -11 -431 -46 -469 -55 -21 -5 -23 -2 -23 36 0 100 -59
244 -129 316 -54 57 -96 77 -158 77 -44 0 -60 -6 -109 -39 -102 -70 -155 -187
-177 -386 l-11 -106 -66 -13 c-36 -7 -100 -24 -143 -37 l-77 -25 -41 36 c-45
41 -77 56 -120 56 l-29 0 16 38 c28 65 72 215 85 286 21 123 -4 245 -64 322
-49 60 -166 78 -322 49z m2491 -2897 c21 -24 53 -58 69 -77 28 -33 29 -34 5
-20 -14 9 -53 32 -87 53 -35 21 -63 39 -63 42 0 8 25 44 30 44 3 0 24 -19 46
-42z"/>
</g>
</svg>
